<?xml version="1.0" encoding="utf-8"?>
<!-- Generator: Adobe Illustrator 23.1.0, SVG Export Plug-In . SVG Version: 6.00 Build 0)  -->
<svg version="1.1" id="Capa_1" xmlns="http://www.w3.org/2000/svg" xmlns:xlink="http://www.w3.org/1999/xlink" x="0px" y="0px"
	 viewBox="0 0 162 178.3" enable-background="new 0 0 162 178.3" xml:space="preserve">
<g>
	<g>
		<path fill="#FFFFFF" d="M62.7,159.9c12.4,0,24.4,0,36.5,0c0,10.4-7.6,18.2-17.9,18.4C71.1,178.5,63.2,170.9,62.7,159.9z"/>
		<path fill="#FFFFFF" d="M8.5,143.1c-4.5,0-6.8-1.2-8.1-4.4c-1.3-3.2,0.1-5.3,3.4-8.6c1.1-1,2.1-2.1,3.2-3.1
			c2.7-2.5,5.4-5.2,7.9-8.1c2.1-2.5,3.5-5.9,3.5-8.8c0.2-14.5,0.4-29.9,0.1-45.1C18,43.8,27.3,24.4,43.9,12C50.1,7.5,63.1,0,80.8,0
			c8.1,0,16.3,1.6,24.5,4.7c8,3.3,15,8.2,21,14.6c11.2,12,16.9,26.4,17,42.8c0,6.3,0,12.6,0,18.8c0,9.4,0,19.1,0.2,28.7
			c0.1,3.1,1.5,6.6,3.9,9.6c2.2,2.8,4.8,5.2,7.3,7.5c0.9,0.9,1.9,1.8,2.8,2.7c3.8,3.7,5.4,5.9,4,9.4c-1.4,3.7-4.1,4.3-9.4,4.3
			c0,0-0.1,0-0.1,0c-21.3,0-42.5,0-63.8,0l-58.1,0c-2.1,0-4.2,0-6.2,0c-2.1,0-4.2,0-6.3,0c-3.3,0-6,0-8.6,0.1L8.5,143.1z M80.7,12.3
			C53.7,12.3,32,34,31.5,61.9c-0.2,9-0.1,18.1-0.1,27c0,8.2,0.1,16.7-0.1,25c0,2.5-0.7,5.2-1.4,8c-0.4,1.4-0.7,2.9-1,4.4l-0.7,3.6
			h105.7l-0.7-3.6c-0.3-1.5-0.7-3-1-4.5c-0.7-2.9-1.4-5.7-1.4-8.4c-0.2-9.4-0.1-18.9-0.1-28.1c0-7.5,0.1-15.2,0-22.8
			c-0.2-22.7-13.5-41-34.6-47.8C91,13.1,85.9,12.3,80.7,12.3z"/>
	</g>
</g>
</svg>
