<?xml version="1.0" encoding="utf-8"?>
<!-- Generator: Adobe Illustrator 23.1.0, SVG Export Plug-In . SVG Version: 6.00 Build 0)  -->
<svg version="1.1" id="Capa_1" xmlns="http://www.w3.org/2000/svg" xmlns:xlink="http://www.w3.org/1999/xlink" x="0px" y="0px"
	 viewBox="0 0 199.5 199.5" enable-background="new 0 0 199.5 199.5" xml:space="preserve">
<g>
	<path fill="#FFFFFF" d="M99.7,199.5c-3,0-6-0.1-9-0.2c-9.8-0.4-15.9-6.7-16-16.7c0-2.9,0-5.9,0-9.3c0-1.7,0-3.4,0-5.4v-7l-8.9,8.4
		c-2.5,2.3-4.6,4.4-6.8,6.4c-3.8,3.6-8,5.5-12.2,5.5c-4.2,0-8.4-1.9-12-5.6c-3.2-3.2-6.6-6.5-10.9-10.9c-3.9-4-6-8.3-5.9-12.6
		c0-4.2,2.1-8.4,6-12.1c2-1.9,4.1-3.6,6.5-5.4c1.1-0.8,2.1-1.7,3.2-2.5l2.1-1.7l-3.7-5.7l-9.9,0c-1.6,0-3.3,0-4.9,0
		c-10.5-0.1-16.7-6.1-17-16.6c-0.2-6.3-0.2-12,0-17.3c0.3-9.8,6.6-16,16.5-16.1c1.7,0,3.3,0,5.1,0c1.4,0,7.8,0,9.7,0h6.9l-4.8-5.1
		c-1.1-1.2-2.1-2.3-3.1-3.3c-1.9-2.1-3.6-3.9-5.4-5.7c-9.6-9.6-9.6-17.8,0-27.3c1.3-1.3,2.6-2.7,4-4c1.9-1.9,3.9-4,5.9-5.9
		c3.5-3.4,7.6-5.2,11.9-5.2c4.4,0,8.5,1.8,12,5.3c2.1,2.1,3.9,4.3,5.9,6.7c0.9,1.1,1.8,2.2,2.7,3.2l1.6,1.9l5.5-3.2l0-5.9
		c0-3,0-6,0-9c0.1-10.7,6.2-17,16.9-17.2C94.7,0,97.7,0,100.7,0c3,0,5.7,0.1,8.2,0.2c9.6,0.4,15.6,6.7,15.8,16.3c0,3,0,6.1,0,9.6
		c0,1.8,0,3.6,0,5.6v7.1l5.1-4.9c1.3-1.3,2.5-2.4,3.7-3.5c2.3-2.2,4.2-4,6.1-6c4.1-4.1,8.5-6.2,12.9-6.2c4.4,0,8.7,2.1,12.8,6.1l2,2
		c2.8,2.8,5.7,5.7,8.6,8.6c7.4,7.5,7.4,16.7,0,24.2c-2,2.1-4.1,4.1-6.5,6.6l-9,9.1h7.2c2,0,9.8,0,9.8,0c1.7,0,3.4,0,5,0
		c10.3,0.1,16.6,6.2,17,16.2c0.2,5.9,0.2,11.9,0,17.8c-0.3,9.9-6.5,15.9-16.6,16c-1.7,0-3.3,0-5.1,0c0,0-7.9,0-9.9,0h-7l4.9,5.1
		c1.2,1.3,2.4,2.5,3.4,3.6c2.1,2.2,4,4.2,5.9,6.1c8.6,8.6,8.6,17.4,0,25.9c-1.2,1.2-2.3,2.3-3.5,3.5c-2.4,2.4-4.9,5-7.4,7.4
		c-3.5,3.3-7.5,5-11.6,5c-4.3,0-8.4-1.9-11.9-5.4c-2.1-2.1-4.2-4.4-6.2-6.6c-0.9-1-1.9-2.1-2.8-3.1l-1.6-1.7l-5.4,2.8v1.8
		c0,1.4,0,2.9,0,4.3c0,3.1,0,6.3,0,9.4c-0.1,9.7-6.2,16-15.7,16.4C105.9,199.4,102.8,199.5,99.7,199.5z M70.3,152.9
		c2.3,0,4.8,0.6,7.4,1.7c7.1,3.1,10.1,8.7,9.7,18.4c-0.1,2.4-0.1,4.8,0,7.2c0,1.1,0,2.1,0,3.2v3H112v-3c0-1.5,0-2.9,0-4.3
		c0-3.1,0-5.9,0-8.8c0.2-7.9,3.5-13,10.1-15.8c2.4-1,4.7-1.5,6.9-1.5c4.3,0,8.4,1.9,12.1,5.8c1.9,1.9,3.6,4,5.4,6.3
		c0.9,1.1,1.7,2.1,2.7,3.2l2,2.4l20.4-18.3L169,150c-1.4-1.2-2.7-2.2-3.9-3.2c-2.3-1.8-4-3.3-5.7-4.9c-6.6-6.6-8.2-13-5-20.1
		c3.1-6.7,8.3-9.8,16.6-9.8c0.3,0,0.6,0,0.9,0c1.4,0,2.9,0.1,4.3,0.1c1.2,0,2.4,0,3.5,0c1.2,0,2.3,0,3.5,0h3V87.4h-3
		c-1.5,0-3,0-4.4,0c-1.4,0-2.8,0-4.2,0c-1.9,0-3.5,0-5-0.1c-7.7-0.3-12.7-3.5-15.4-10c-2.9-7-1.5-13.3,3.9-18.7c2-2,4.3-3.9,6.4-5.8
		c1-0.8,1.9-1.6,2.8-2.4l2.4-2.1l-18.3-18.8l-2.1,2.3c-0.8,0.9-1.7,1.8-2.5,2.7c-1.8,2-3.6,4-5.5,6c-3.8,4-7.9,5.9-12.4,5.9
		c-2.1,0-4.4-0.4-6.7-1.3c-6.7-2.5-10.1-8.1-10.2-16.6c0-2.8,0-5.5,0-8.4c0-1.3,0-2.6,0-4v-3H87.4v3c0,1.6,0,3.1,0,4.6
		c0,3.2,0.1,6.2-0.1,9.2c-0.3,7.6-3.7,12.6-10.3,15.2c-2.3,0.9-4.6,1.4-6.7,1.4c-4.1,0-8.1-1.8-11.6-5.3c-2-2-3.9-4.2-5.7-6.4
		c-0.9-1-1.7-2.1-2.6-3.1l-2.1-2.5L29.2,48.7l2.5,2.1c0.9,0.7,1.8,1.5,2.8,2.2c2,1.6,4.1,3.2,6,5.1c6.1,6,7.6,12.5,4.5,19.4
		c-3,6.8-8.5,10-16.6,10l-0.3,0c-1.5,0-3,0-4.5,0c0,0-6.2,0-7.5,0h-3v24.7l11.2,0c1.6,0,3.1,0,4.7,0c8.1,0.1,13.4,3.4,16.1,10.3
		c2.8,7.1,1.3,13.3-4.5,19.1c-2,2-4,4-5.9,5.9c-0.8,0.8-1.6,1.7-2.4,2.4l-2.1,2.1l17.7,18l4.2-4.7c1.6-1.7,3.2-3.5,4.7-5.3
		C61.1,155.2,65.5,152.9,70.3,152.9z"/>
	<path fill="#FFFFFF" d="M99.8,134.1c-9.2,0-17.9-3.6-24.4-10.2c-6.5-6.6-10.1-15.2-10-24.3c0.1-18.8,15.5-34.2,34.3-34.2
		c9.2,0,17.9,3.6,24.4,10.2c6.5,6.6,10.1,15.2,10.1,24.4C134,118.4,118.3,134.1,99.8,134.1L99.8,134.1z M99.7,78.2
		c-5.9,0-11.3,2.2-15.4,6.3c-4,4.1-6.2,9.6-6.2,15.4c0.1,12,9.6,21.3,21.5,21.4c5.9,0,11.4-2.3,15.4-6.4c4.1-4.1,6.3-9.6,6.2-15.4
		C121.2,87.6,111.7,78.2,99.7,78.2L99.7,78.2z"/>
</g>
</svg>
