<?xml version="1.0" encoding="utf-8"?>
<!-- Generator: Adobe Illustrator 23.1.0, SVG Export Plug-In . SVG Version: 6.00 Build 0)  -->
<svg version="1.1" id="Capa_1" xmlns="http://www.w3.org/2000/svg" xmlns:xlink="http://www.w3.org/1999/xlink" x="0px" y="0px"
	 viewBox="0 0 170.3 170.2" enable-background="new 0 0 170.3 170.2" xml:space="preserve">
<g id="_01-like_1_">
	<g>
		<path fill="#AACEE9" d="M149,0H21.3C9.5,0,0,9.5,0,21.3v141.9c0.1,4,3.3,7.1,7.3,7c1.5,0,3-0.5,4.2-1.4l34.4-26.9H149
			c11.8,0,21.3-9.5,21.3-21.3V21.3C170.3,9.5,160.8,0,149,0z M156.1,120.6c0,3.9-3.2,7.1-7.1,7.1H43.5c-1.6,0-3.1,0.5-4.4,1.5
			l-24.9,19.4V21.3c0-3.9,3.2-7.1,7.1-7.1H149c3.9,0,7.1,3.2,7.1,7.1V120.6z"/>
	</g>
</g>
</svg>
