<?xml version="1.0" encoding="utf-8"?>
<!-- Generator: Adobe Illustrator 23.1.0, SVG Export Plug-In . SVG Version: 6.00 Build 0)  -->
<svg version="1.1" id="Capa_1" xmlns="http://www.w3.org/2000/svg" xmlns:xlink="http://www.w3.org/1999/xlink" x="0px" y="0px"
	 viewBox="0 0 137.6 103.3" enable-background="new 0 0 137.6 103.3" xml:space="preserve">
<g>
	<g>
		<path fill="#989898" d="M137.1,49.2C125.6,23.3,99.4,0,68.8,0C34.4,0,9.6,28.8,0.5,49.2c-0.7,1.6-0.7,3.4,0,4.9
			C12,80,38.2,103.3,68.8,103.3c34.4,0,59.2-28.8,68.3-49.2C137.8,52.6,137.8,50.7,137.1,49.2z M68.8,91.8
			c-24.8,0-45.3-17.4-57.3-40.2C23.5,29,44,11.5,68.8,11.5c24.8,0,45.3,17.4,57.3,40.2C114.2,74.3,93.6,91.8,68.8,91.8z"/>
		<path fill="#989898" d="M68.8,27.3c-13.4,0-24.3,10.9-24.3,24.3C44.5,65.1,55.4,76,68.8,76s24.3-10.9,24.3-24.3
			C93.2,38.2,82.2,27.3,68.8,27.3z M68.8,66.3c-8.1,0-14.6-6.6-14.6-14.6c0-8.1,6.6-14.6,14.6-14.6c8.1,0,14.6,6.6,14.6,14.6
			C83.4,59.7,76.9,66.3,68.8,66.3z"/>
	</g>
</g>
</svg>
