<?xml version="1.0" encoding="utf-8"?>
<!-- Generator: Adobe Illustrator 23.1.0, SVG Export Plug-In . SVG Version: 6.00 Build 0)  -->
<svg version="1.1" id="Capa_1" xmlns="http://www.w3.org/2000/svg" xmlns:xlink="http://www.w3.org/1999/xlink" x="0px" y="0px"
	 viewBox="0 0 169 188.9" enable-background="new 0 0 169 188.9" xml:space="preserve">
<path fill="#FFFFFF" d="M166.5,59.8l-78-58.5c-2.2-1.7-5.3-1.6-7.5,0L3.8,59.8c-1.5,1.2-2.4,2.9-2.5,4.9c-0.1,4-1.3,96.8-1.3,107
	c0,11.7,10,16.7,17.3,17.3h40.6h53.2h41c11.6,0,16.8-11,16.8-21.3V64.7C169,62.8,168,60.9,166.5,59.8z M64.1,176.5v-72.7h40.8v72.7
	H64.1z M156.5,167.6c0,0.1-0.3,8.9-4.4,8.9l-34.8,0V97.6c0-3.4-2.8-6.2-6.2-6.2H57.9c-3.4,0-6.2,2.8-6.2,6.2v79l-33.9,0
	c-0.9-0.1-5.4-0.6-5.4-4.9c0-9,1.1-87.3,1.3-103.8l71-53.9l71.8,53.9V167.6z"/>
</svg>
