<?xml version="1.0" encoding="utf-8"?>
<!-- Generator: Adobe Illustrator 23.1.0, SVG Export Plug-In . SVG Version: 6.00 Build 0)  -->
<svg version="1.1" id="Capa_1" xmlns="http://www.w3.org/2000/svg" xmlns:xlink="http://www.w3.org/1999/xlink" x="0px" y="0px"
	 viewBox="0 0 41 30.8" enable-background="new 0 0 41 30.8" xml:space="preserve">
<g>
	<path fill="#0185CC" d="M30.3,0c5.4,0,5.4,0,8.2,0c1.9,0,2.7,0.3,2.6,2.4c-0.2,3.5,0,7.3-0.1,10.8c-0.2,5.6-5,11.3-10.5,11
		c-5.3-0.3-9.5,1.6-12.6,5.6c-0.2,0.3-0.6,0.5-0.9,0.7c0,0-0.2,0-0.5,0c-0.2-6.4,0-10.9,0-16.7C17.1,4.8,21.4,0.5,30.3,0z"/>
	<path fill="#65B32E" d="M6.4,12.6c-3.2,0-3.2,0-4.8,0c-1.1,0-1.6,0.2-1.5,1.4c0.1,2.1,0,4.3,0,6.4c0.1,3.3,3,6.7,6.2,6.5
		c3.2-0.2,5.6,1,7.4,3.3c0.1,0.2,0.3,0.3,0.5,0.4c0,0,0.1,0,0.3,0c0.1-3.8,0-6.5,0-9.9C14.2,15.5,11.7,12.9,6.4,12.6z"/>
</g>
</svg>
