<?xml version="1.0" encoding="utf-8"?>
<!-- Generator: Adobe Illustrator 23.1.0, SVG Export Plug-In . SVG Version: 6.00 Build 0)  -->
<svg version="1.1" id="Capa_1" xmlns="http://www.w3.org/2000/svg" xmlns:xlink="http://www.w3.org/1999/xlink" x="0px" y="0px"
	 viewBox="0 0 223.9 223.9" enable-background="new 0 0 223.9 223.9" xml:space="preserve">
<path fill="#FFFFFF" d="M145.8,161.4c-44.5,32.7-100.1,19.4-127.3-16.7C-9.1,108-5.4,57.6,27,25.7C59.2-6,110.2-8.6,145.8,19.2
	c35.9,28.1,47.5,83.1,15.8,126.3c1.2,1.3,2.5,2.8,3.9,4.2c17.6,17.5,35.1,35.1,52.7,52.6c0.6,0.6,1.2,1.2,1.7,1.8
	c5,5.5,5.3,11.8,0.8,16.5c-4.6,4.7-11.1,4.6-16.4-0.6c-6-5.8-11.8-11.7-17.7-17.6C173,188.7,159.5,175.2,145.8,161.4z M90.4,22.4
	c-37.5-0.1-67.7,29.8-68.1,67.4c-0.4,37.1,30.2,67.8,67.6,68c37.4,0.1,67.9-30.1,68-67.5C158,52.8,127.8,22.5,90.4,22.4z"/>
</svg>
