<?xml version="1.0" encoding="utf-8"?>
<!-- Generator: Adobe Illustrator 23.1.0, SVG Export Plug-In . SVG Version: 6.00 Build 0)  -->
<svg version="1.1" id="Capa_1" xmlns="http://www.w3.org/2000/svg" xmlns:xlink="http://www.w3.org/1999/xlink" x="0px" y="0px"
	 viewBox="0 0 21.8 21.8" enable-background="new 0 0 21.8 21.8" xml:space="preserve">
<path fill="#AACEE9" d="M8.4,5.1C7.8,5.1,7.3,4.6,7.3,4c0-0.6,0.5-1.1,1.1-1.1l9.4,0c0.3,0,0.6,0.1,0.8,0.3C18.8,3.4,19,3.7,19,4
	l0,9.4c0,0.6-0.5,1.1-1.1,1.1s-1.1-0.5-1.1-1.1l0-6.7l-12,12c-0.4,0.4-1.1,0.4-1.6,0c-0.4-0.4-0.4-1.1,0-1.6l12-12L8.4,5.1z"/>
</svg>
