<?xml version="1.0" encoding="utf-8"?>
<!-- Generator: Adobe Illustrator 23.1.0, SVG Export Plug-In . SVG Version: 6.00 Build 0)  -->
<svg version="1.1" id="Capa_1" xmlns="http://www.w3.org/2000/svg" xmlns:xlink="http://www.w3.org/1999/xlink" x="0px" y="0px"
	 viewBox="0 0 196.4 189.3" enable-background="new 0 0 196.4 189.3" xml:space="preserve">
<path fill="#AACEE9" d="M43.3,189.3c-6.2-0.1-9.1-4.4-7.9-10c3.7-17.1,7.4-34.2,11.4-51.2c1.1-4.6,0.4-7.5-3.4-10.6
	c-13.1-10.8-25.9-22-38.8-33c-2.9-2.5-5.6-5.1-4.3-9.3c1.2-4.2,4.7-5,8.6-5.4c17.2-1.8,34.4-3.9,51.7-5.6c3.5-0.3,5.2-1.6,6.6-4.8
	c7.6-17.6,15.5-35,23.3-52.5C92,3.3,93.7,0,98.2,0c4.4,0,6.2,3.1,7.8,6.6c7.8,17.7,15.8,35.3,23.5,53c1.3,3,3.1,4.1,6.3,4.4
	c17.6,1.8,35.1,3.9,52.6,5.8c3.6,0.4,6.6,1.6,7.6,5.3c1.1,3.7-0.8,6.4-3.5,8.7c-13.6,11.6-27,23.3-40.6,34.8
	c-2.8,2.4-3.5,4.5-2.7,8.1c4,17.2,7.6,34.5,11.5,51.7c0.8,3.7,1.1,7-2.2,9.5c-3.5,2.7-6.9,1.3-10.1-0.8
	c-15.4-9.7-30.8-19.2-46.1-28.9c-3-1.9-5.1-1.8-8.1,0c-15.2,9.7-30.5,19.1-45.8,28.6C46.5,188,44.4,188.8,43.3,189.3z M25,82.5
	c2.2,2,3.3,3.2,4.6,4.2c9.6,8.3,19.1,16.6,28.9,24.7c4.1,3.4,5.8,7,4.2,12.2c-1.3,4.1-1.9,8.4-2.8,12.7c-2.1,9.7-4.3,19.4-6.7,30.2
	c2.9-1.7,4.8-2.7,6.6-3.8c11-6.9,22.1-13.7,33-20.7c3.9-2.5,7.2-2.5,11.1,0c10.7,6.8,21.4,13.5,32.2,20.2c2,1.3,4.2,2.4,7,4.1
	c-0.3-2.2-0.4-3.3-0.7-4.4c-2.8-12.8-5.4-25.7-8.5-38.5c-1.2-4.9-0.1-8.3,3.6-11.4c10-8.3,19.8-16.9,29.6-25.3
	c1.3-1.1,2.5-2.3,4.4-4.1c-15.3-1.8-29.5-3.6-43.7-5c-4.8-0.5-7.4-2.8-9.3-7c-5.8-13.3-11.7-26.5-17.5-39.8
	c-0.7-1.6-1.5-3.1-2.7-5.6c-6.3,14.2-12.6,27.1-17.6,40.4c-3.3,8.7-8.3,12.4-17.6,12.9C50.7,79,38.5,81,25,82.5z"/>
</svg>
